<?xml version="1.0" encoding="utf-8"?>
<!-- Generator: Adobe Illustrator 16.0.0, SVG Export Plug-In . SVG Version: 6.00 Build 0)  -->
<!DOCTYPE svg PUBLIC "-//W3C//DTD SVG 1.1//EN" "http://www.w3.org/Graphics/SVG/1.1/DTD/svg11.dtd">
<svg version="1.1" id="Layer_1" xmlns="http://www.w3.org/2000/svg" xmlns:xlink="http://www.w3.org/1999/xlink" x="0px" y="0px"
	 width="595.279px" height="841.891px" viewBox="0 0 595.279 841.891" enable-background="new 0 0 595.279 841.891"
	 xml:space="preserve">
<path fill="#FFFFFF" d="M578.744,222.519c9.136,0,16.535-7.4,16.535-16.536v-33.071c0-9.136-7.399-16.536-16.535-16.536H16.535
	C7.4,156.376,0,163.776,0,172.912v33.071c0,9.136,7.399,16.536,16.535,16.536H33.05v396.854H16.535C7.4,619.372,0,626.771,0,635.907
	v33.071c0,9.136,7.399,16.535,16.535,16.535h248.033v-82.678c0-9.094,7.441-16.535,16.536-16.535h33.07
	c9.095,0,16.536,7.441,16.536,16.535v82.678h248.033c9.136,0,16.535-7.399,16.535-16.535v-33.071
	c0-9.136-7.399-16.535-16.535-16.535h-16.535V222.519H578.744z M264.569,268.818c0-6.614,6.614-13.229,13.229-13.229h39.686
	c6.614,0,13.229,6.614,13.229,13.229v39.686c0,6.614-6.614,13.229-13.229,13.229h-39.686c-6.614,0-13.229-6.614-13.229-13.229
	V268.818L264.569,268.818z M264.569,368.031c0-6.614,6.614-13.229,13.229-13.229h39.686c6.614,0,13.229,6.614,13.229,13.229v39.686
	c0,6.614-6.614,13.229-13.229,13.229h-39.686c-6.614,0-13.229-6.614-13.229-13.229V368.031L264.569,368.031z M132.284,268.818
	c0-6.614,6.614-13.229,13.229-13.229h39.686c6.614,0,13.229,6.614,13.229,13.229v39.686c0,6.614-6.614,13.229-13.229,13.229h-39.686
	c-6.614,0-13.229-6.614-13.229-13.229V268.818L132.284,268.818z M185.198,420.945h-39.686c-6.614,0-13.229-6.614-13.229-13.229
	v-39.686c0-6.614,6.614-13.229,13.229-13.229h39.686c6.614,0,13.229,6.614,13.229,13.229v39.686
	C198.427,414.331,191.813,420.945,185.198,420.945L185.198,420.945z M198.427,553.229c0-54.795,44.418-99.213,99.213-99.213
	s99.214,44.418,99.214,99.213H198.427z M462.995,407.717c0,6.614-6.614,13.229-13.229,13.229h-39.686
	c-6.614,0-13.228-6.614-13.228-13.229v-39.686c0-6.614,6.613-13.229,13.228-13.229h39.686c6.614,0,13.229,6.614,13.229,13.229
	V407.717L462.995,407.717z M462.995,308.503c0,6.614-6.614,13.229-13.229,13.229h-39.686c-6.614,0-13.228-6.614-13.228-13.229
	v-39.686c0-6.614,6.613-13.229,13.228-13.229h39.686c6.614,0,13.229,6.614,13.229,13.229V308.503z"/>
</svg>
