<?xml version="1.0" encoding="utf-8"?>
<!-- Generator: Adobe Illustrator 16.0.0, SVG Export Plug-In . SVG Version: 6.00 Build 0)  -->
<!DOCTYPE svg PUBLIC "-//W3C//DTD SVG 1.1//EN" "http://www.w3.org/Graphics/SVG/1.1/DTD/svg11.dtd">
<svg version="1.1" id="Layer_1" xmlns="http://www.w3.org/2000/svg" xmlns:xlink="http://www.w3.org/1999/xlink" x="0px" y="0px"
	 width="595.279px" height="841.891px" viewBox="0 0 595.279 841.891" enable-background="new 0 0 595.279 841.891"
	 xml:space="preserve">
<path fill="#FFFFFF" d="M581.317,327.933h-69.608l-19.347-48.367c-19.881-49.727-67.329-81.851-120.893-81.851H223.812
	c-53.553,0-101.012,32.125-120.905,81.851L83.56,327.933H13.963c-9.08,0-15.742,8.534-13.533,17.335l6.977,27.904
	c1.546,6.208,7.127,10.569,13.533,10.569h23.334c-15.614,13.638-25.671,33.461-25.671,55.808v55.808
	c0,18.741,7.162,35.658,18.603,48.75v62.864c0,20.545,16.66,37.205,37.205,37.205h37.205c20.544,0,37.204-16.66,37.204-37.205
	v-37.204H446.46v37.204c0,20.545,16.66,37.205,37.205,37.205h37.205c20.544,0,37.205-16.66,37.205-37.205v-62.864
	c11.44-13.08,18.603-29.997,18.603-48.75v-55.808c0-22.347-10.058-42.17-25.66-55.808h23.334c6.406,0,11.987-4.36,13.534-10.569
	l6.976-27.904C597.059,336.466,590.397,327.933,581.317,327.933z M171.991,307.202c8.477-21.184,28.997-35.077,51.82-35.077h147.657
	c22.822,0,43.344,13.894,51.819,35.077l23.172,57.936H148.82L171.991,307.202z M111.615,495.123
	c-22.323,0-37.205-14.836-37.205-37.089c0-22.254,14.882-37.089,37.205-37.089c22.322,0,55.807,33.38,55.807,55.633
	S133.938,495.123,111.615,495.123L111.615,495.123z M483.665,495.123c-22.323,0-55.808,3.708-55.808-18.545
	s33.484-55.633,55.808-55.633c22.322,0,37.205,14.835,37.205,37.089C520.87,480.287,505.988,495.123,483.665,495.123z"/>
</svg>
