<?xml version="1.0" encoding="utf-8"?>
<!-- Generator: Adobe Illustrator 16.0.0, SVG Export Plug-In . SVG Version: 6.00 Build 0)  -->
<!DOCTYPE svg PUBLIC "-//W3C//DTD SVG 1.1//EN" "http://www.w3.org/Graphics/SVG/1.1/DTD/svg11.dtd">
<svg version="1.1" id="Layer_1" xmlns="http://www.w3.org/2000/svg" xmlns:xlink="http://www.w3.org/1999/xlink" x="0px" y="0px"
	 width="595.279px" height="841.891px" viewBox="0 0 595.279 841.891" enable-background="new 0 0 595.279 841.891"
	 xml:space="preserve">
<path fill="#FFFFFF" d="M172.233,314.645h51.94c1.98-35.916,8.69-68.231,18.882-93.557
	C206.236,238.68,179.248,273.162,172.233,314.645z M172.233,357.165c7.029,41.483,34.003,75.965,70.822,93.558
	c-10.205-25.326-16.901-57.642-18.882-93.558H172.233z M297.64,461.725c10.218-9.899,27.599-45.735,31.133-104.56h-62.278
	C270.042,415.976,287.422,451.825,297.64,461.725z M266.507,314.645h62.278c-3.534-58.811-20.914-94.66-31.132-104.56
	C287.422,219.985,270.042,255.834,266.507,314.645z M352.225,450.723c36.819-17.593,63.807-52.074,70.822-93.558h-51.94
	C369.127,393.081,362.43,425.396,352.225,450.723z M552.76,80.785H85.04C38.069,80.785,0,118.854,0,165.825v510.24
	c0,46.971,38.068,85.04,85.04,85.04h467.72c23.479,0,42.52-19.041,42.52-42.521v-595.28C595.28,99.826,576.24,80.785,552.76,80.785z
	 M446.46,633.545H148.82c-11.692,0-21.26-9.566-21.26-21.26s9.567-21.26,21.26-21.26H446.46c11.692,0,21.26,9.566,21.26,21.26
	S458.153,633.545,446.46,633.545z M297.64,505.985c-93.929,0-170.08-76.151-170.08-170.08c0-93.93,76.151-170.08,170.08-170.08
	c93.93,0,170.08,76.15,170.08,170.08C467.72,429.834,391.57,505.985,297.64,505.985z M352.225,221.088
	c10.205,25.326,16.902,57.641,18.882,93.557h51.94C416.031,273.162,389.044,238.68,352.225,221.088z"/>
</svg>
