<?xml version="1.0" encoding="utf-8"?>
<!-- Generator: Adobe Illustrator 16.0.0, SVG Export Plug-In . SVG Version: 6.00 Build 0)  -->
<!DOCTYPE svg PUBLIC "-//W3C//DTD SVG 1.1//EN" "http://www.w3.org/Graphics/SVG/1.1/DTD/svg11.dtd">
<svg version="1.1" id="Layer_1" xmlns="http://www.w3.org/2000/svg" xmlns:xlink="http://www.w3.org/1999/xlink" x="0px" y="0px"
	 width="595.279px" height="841.891px" viewBox="0 0 595.279 841.891" enable-background="new 0 0 595.279 841.891"
	 xml:space="preserve">
<path fill="#FFFFFF" d="M496.067,354.803H377.951L269.333,164.706c-2.948-5.152-8.43-8.33-14.365-8.33h-67.692
	c-10.986,0-18.913,10.511-15.895,21.073l50.671,177.354H115.749l-44.646-59.528c-3.121-4.165-8.03-6.614-13.229-6.614H16.546
	c-10.759,0-18.654,10.107-16.04,20.545l32.565,111.739L0.506,532.685c-2.614,10.438,5.281,20.545,16.04,20.545h41.328
	c5.209,0,10.107-2.449,13.229-6.614l44.646-59.528h106.303l-50.671,177.345c-3.019,10.562,4.908,21.082,15.895,21.082h67.692
	c5.933,0,11.409-3.183,14.354-8.329l108.629-190.098h118.115c36.533,0,99.213-29.608,99.213-66.142
	C595.28,384.412,532.6,354.803,496.067,354.803z"/>
</svg>
